<?xml version="1.0" standalone="no"?>
<!DOCTYPE svg PUBLIC "-//W3C//DTD SVG 20010904//EN"
 "http://www.w3.org/TR/2001/REC-SVG-20010904/DTD/svg10.dtd">
<svg version="1.0" xmlns="http://www.w3.org/2000/svg"
 width="270.000000pt" height="270.000000pt" viewBox="0 0 270.000000 270.000000"
 preserveAspectRatio="xMidYMid meet">
<metadata>
Created by potrace 1.11, written by Peter Selinger 2001-2013
</metadata>
<g transform="translate(0.000000,270.000000) scale(0.100000,-0.100000)"
fill="#000000" stroke="none">
<path d="M1054 2180 c-143 -29 -254 -140 -287 -286 -20 -88 -19 -89 41 -92 44
-3 52 0 53 15 5 111 63 204 157 250 48 23 69 28 132 27 159 -1 256 -90 265
-242 8 -119 -58 -239 -241 -442 -17 -19 -103 -116 -190 -215 -87 -99 -168
-191 -180 -204 -16 -17 -21 -34 -20 -65 l2 -41 400 0 399 0 0 45 0 45 -327 0
c-180 0 -329 3 -332 5 -3 3 12 23 32 45 21 22 86 96 146 165 60 69 114 130
120 135 36 32 170 201 209 260 168 262 96 522 -163 590 -54 14 -160 17 -216 5z"/>
<path d="M487 1845 c-45 -16 -63 -28 -104 -74 -36 -40 -33 -44 -37 39 l-1 25
-123 3 -122 3 0 -478 0 -478 128 0 127 0 1 313 c1 295 2 315 21 340 34 47 88
67 181 67 l82 0 1 40 c1 116 0 198 -5 202 -12 12 -114 11 -149 -2z"/>
<path d="M2015 1848 c-195 -61 -297 -241 -288 -509 8 -234 97 -388 261 -450
103 -38 237 -21 313 41 39 31 39 31 40 8 6 -139 -63 -218 -196 -224 -73 -3
-147 20 -202 64 -23 18 -43 32 -46 32 -7 0 -107 -139 -107 -149 0 -17 74 -74
128 -99 79 -36 157 -51 247 -47 106 4 138 11 211 45 77 35 132 84 168 150 52
96 54 110 54 641 l0 494 -106 -2 c-59 -1 -112 -2 -117 -2 -9 -1 -15 -22 -18
-68 -1 -17 0 -17 -36 16 -47 44 -123 69 -206 69 -38 -1 -83 -5 -100 -10z m240
-212 c19 -8 46 -26 60 -40 l25 -25 0 -209 0 -208 -29 -28 c-17 -16 -52 -34
-80 -42 -102 -26 -178 13 -225 115 -17 38 -20 66 -21 161 0 99 3 122 23 165
28 60 57 93 97 111 40 18 107 17 150 0z"/>
<path d="M109 734 c-5 -6 -7 -19 -3 -28 6 -15 75 -16 789 -16 816 0 820 0 795
40 -8 13 -116 15 -790 15 -568 0 -784 -3 -791 -11z"/>
</g>
</svg>
