<svg xmlns="http://www.w3.org/2000/svg" viewBox="0 0 156.9 115.46">
  <defs>
    <style>
      .a{fill:#667791}
    </style>
  </defs>
  <path d="M39.07 43.77q-1.08-.15-2.52-.27c-1-.08-1.81-.12-2.56-.12a14 14 0 0 0-6.71 1.39 8.61 8.61 0 0 0-3.79 4v34.6H9.38V30.53h13.33l.39 6.3a15.92 15.92 0 0 1 4.9-5.34 12.13 12.13 0 0 1 6.84-1.93 15.31 15.31 0 0 1 2.37.19 14.8 14.8 0 0 1 2 .44z" class="a"/>
  <path fill="#a1d6d0" d="M91.66 83.37H47.12v-4.5l23.3-26.41c2.18-2.48 4-4.7 5.54-6.69a44.48 44.48 0 0 0 3.66-5.54 22.42 22.42 0 0 0 2-4.84 17.18 17.18 0 0 0 .61-4.51 17.53 17.53 0 0 0-1-5.89 12.44 12.44 0 0 0-7.5-7.64 17.76 17.76 0 0 0-6.39-1.07 17 17 0 0 0-6.67 1.24 14.76 14.76 0 0 0-5 3.44 15.17 15.17 0 0 0-3.19 5.23 18.76 18.76 0 0 0-1.13 6.59h-5.79a23.14 23.14 0 0 1 1.49-8.3 20 20 0 0 1 4.32-6.84A20.71 20.71 0 0 1 58.23 13a23.27 23.27 0 0 1 9.16-1.71 27.13 27.13 0 0 1 8.61 1.3 18 18 0 0 1 6.54 3.76 16.44 16.44 0 0 1 4.13 6 21.13 21.13 0 0 1 1.44 8A19.15 19.15 0 0 1 87 36.88a36.1 36.1 0 0 1-3.13 6.5 60.49 60.49 0 0 1-4.49 6.39Q76.82 53 74.13 56L54.3 78.44h37.36z"/>
  <path d="M99.22 56.56a38.38 38.38 0 0 1 1.49-11A26.09 26.09 0 0 1 105 37a19 19 0 0 1 6.72-5.52 19.9 19.9 0 0 1 8.93-2 18.46 18.46 0 0 1 7.94 1.56 15.88 15.88 0 0 1 5.59 4.4l.58-5h12.79v51a23.55 23.55 0 0 1-1.85 9.62 19.91 19.91 0 0 1-5.2 7.1 22.38 22.38 0 0 1-8 4.4 33.92 33.92 0 0 1-10.33 1.49 30.35 30.35 0 0 1-10.57-2 27.35 27.35 0 0 1-5-2.59 16.19 16.19 0 0 1-4-3.71l6.25-8.6a18.31 18.31 0 0 0 5.69 4.35 16 16 0 0 0 7.1 1.56c3.74 0 6.66-1 8.74-3s3.12-4.84 3.12-8.52v-2.71a16.44 16.44 0 0 1-5.51 4.07 17.59 17.59 0 0 1-7.33 1.44 19 19 0 0 1-8.86-2 20 20 0 0 1-6.8-5.61 26.17 26.17 0 0 1-4.25-8.48 36.62 36.62 0 0 1-1.49-10.66zm14.12 1a27.14 27.14 0 0 0 .63 6 14.77 14.77 0 0 0 2 4.86 10.12 10.12 0 0 0 3.37 3.27 9.26 9.26 0 0 0 4.81 1.2 11.53 11.53 0 0 0 5.64-1.27 9.3 9.3 0 0 0 3.58-3.57V45.87a9.42 9.42 0 0 0-3.58-3.59 11.25 11.25 0 0 0-5.57-1.28 9.28 9.28 0 0 0-4.81 1.2 10.33 10.33 0 0 0-3.41 3.32 15.5 15.5 0 0 0-2 4.94 27.43 27.43 0 0 0-.65 6.1z" class="a"/>
  <path fill="#eecc28" stroke="#eecc28" stroke-linecap="round" stroke-miterlimit="10" stroke-width="3" d="M10.88 92.68h85.18"/>
</svg>
