<svg xmlns="http://www.w3.org/2000/svg" viewBox="0 0 689.4 117.48">
  <defs>
    <style>
      .a{fill:#667791}.c{fill:#eecc28}
    </style>
  </defs>
  <path d="M39.11 45.36c-.72-.1-1.56-.18-2.52-.27S34.78 45 34 45a14.12 14.12 0 0 0-6.71 1.39 8.61 8.61 0 0 0-3.79 4V85H9.42V32.13h13.33l.39 6.3a16 16 0 0 1 4.93-5.35 12.21 12.21 0 0 1 6.84-1.93 15.36 15.36 0 0 1 2.37.2 14.8 14.8 0 0 1 2 .44zM69.28 85.94a28.77 28.77 0 0 1-11-2A24.44 24.44 0 0 1 50 78.47a23.33 23.33 0 0 1-5.17-8.13 27.72 27.72 0 0 1-1.79-10v-1.9a33.28 33.28 0 0 1 1.74-11 25.28 25.28 0 0 1 4.93-8.62 22.29 22.29 0 0 1 7.76-5.64 25 25 0 0 1 10.23-2A25.21 25.21 0 0 1 77.78 33a20.1 20.1 0 0 1 7.3 5.28 22.39 22.39 0 0 1 4.44 8.17A35.56 35.56 0 0 1 91 57.13v6H57.37a14.76 14.76 0 0 0 1.39 4.68 12.12 12.12 0 0 0 2.69 3.59 11.87 11.87 0 0 0 3.83 2.32 13.93 13.93 0 0 0 4.93.83 17.51 17.51 0 0 0 7.13-1.44A14.44 14.44 0 0 0 83 68.65l6.93 7.77A21.18 21.18 0 0 1 82.22 83a25.84 25.84 0 0 1-5.83 2.15 29.35 29.35 0 0 1-7.11.79zm-1.61-43.36a9.6 9.6 0 0 0-4 .8 8.86 8.86 0 0 0-3 2.25 11.76 11.76 0 0 0-2 3.44 19.45 19.45 0 0 0-1.12 4.45h19.6v-1.13a14.22 14.22 0 0 0-.62-3.9 8.54 8.54 0 0 0-1.7-3.13 7.79 7.79 0 0 0-2.93-2 11.08 11.08 0 0 0-4.23-.78zM121 74.56a11 11 0 0 0 3.57-.56 8.18 8.18 0 0 0 2.78-1.59 7.21 7.21 0 0 0 1.82-2.41 8.24 8.24 0 0 0 .71-3.25h13.23a18 18 0 0 1-1.76 7.74 19 19 0 0 1-4.63 6.1 21.13 21.13 0 0 1-6.91 4 25.27 25.27 0 0 1-8.57 1.42 25.81 25.81 0 0 1-10.75-2.08 21.21 21.21 0 0 1-7.61-5.66 24 24 0 0 1-4.54-8.45 35 35 0 0 1-1.52-10.47v-1.44a35.3 35.3 0 0 1 1.52-10.5 24.24 24.24 0 0 1 4.54-8.49 21.15 21.15 0 0 1 7.59-5.69 25.46 25.46 0 0 1 10.67-2.08 26.31 26.31 0 0 1 8.91 1.44 19.7 19.7 0 0 1 6.95 4.13 18.59 18.59 0 0 1 4.49 6.52 22.34 22.34 0 0 1 1.66 8.57h-13.27a11.15 11.15 0 0 0-.66-3.59 8.85 8.85 0 0 0-1.73-2.93 8.12 8.12 0 0 0-2.79-2 9.27 9.27 0 0 0-3.8-.73 9 9 0 0 0-5 1.27 8.79 8.79 0 0 0-3.06 3.39 15.53 15.53 0 0 0-1.49 4.91 41.47 41.47 0 0 0-.39 5.76v1.37a41.88 41.88 0 0 0 .39 5.81 15.27 15.27 0 0 0 1.46 4.93 8.67 8.67 0 0 0 3.06 3.35 9.4 9.4 0 0 0 5.13 1.21zM151.07 18.46a7 7 0 0 1 2.13-5.23 8 8 0 0 1 5.8-2.05 9.35 9.35 0 0 1 3.27.54 7.08 7.08 0 0 1 2.49 1.51 6.67 6.67 0 0 1 1.59 2.32 7.94 7.94 0 0 1 0 5.86 6.58 6.58 0 0 1-1.59 2.32 6.93 6.93 0 0 1-2.49 1.51 10.17 10.17 0 0 1-6.54 0 6.93 6.93 0 0 1-2.49-1.51 6.85 6.85 0 0 1-1.59-2.32 7.64 7.64 0 0 1-.58-2.95zm15 66.5H151.9V32.13h14.16zM225.24 59a40.83 40.83 0 0 1-1.34 10.7 26.34 26.34 0 0 1-3.9 8.55 18.86 18.86 0 0 1-6.42 5.64 18.52 18.52 0 0 1-8.82 2 17.5 17.5 0 0 1-7.39-1.47 16.48 16.48 0 0 1-5.55-4.1v24.9h-14.14V32.13h13.09l.49 5.18a17.36 17.36 0 0 1 5.74-4.55 17.14 17.14 0 0 1 7.69-1.61 19.67 19.67 0 0 1 8.88 1.93 17.79 17.79 0 0 1 6.43 5.47 25.75 25.75 0 0 1 3.93 8.5 42 42 0 0 1 1.34 11zm-14.11-1a31.35 31.35 0 0 0-.56-6.08 15.8 15.8 0 0 0-1.78-4.88 9.18 9.18 0 0 0-3.15-3.25 9 9 0 0 0-4.72-1.17 11.18 11.18 0 0 0-5.68 1.29 8.66 8.66 0 0 0-3.45 3.79v21.64a9.41 9.41 0 0 0 3.45 3.83 10.73 10.73 0 0 0 5.76 1.39 8.64 8.64 0 0 0 4.71-1.22 9.24 9.24 0 0 0 3.15-3.34 16.21 16.21 0 0 0 1.73-5 32.06 32.06 0 0 0 .54-6zM258.3 85.94a28.77 28.77 0 0 1-11-2 24.58 24.58 0 0 1-8.3-5.47 23.47 23.47 0 0 1-5.17-8.13 27.71 27.71 0 0 1-1.78-10v-1.9a33.28 33.28 0 0 1 1.73-11 25.44 25.44 0 0 1 4.93-8.62 22.24 22.24 0 0 1 7.77-5.64 27.28 27.28 0 0 1 20.31-.18 20.1 20.1 0 0 1 7.3 5.28 22.56 22.56 0 0 1 4.45 8.17A35.88 35.88 0 0 1 280 57.13v6h-33.62a14.51 14.51 0 0 0 1.4 4.68 11.71 11.71 0 0 0 6.51 5.91 14 14 0 0 0 4.94.83 17.46 17.46 0 0 0 7.12-1.44 14.36 14.36 0 0 0 5.65-4.46l6.93 7.77a20.79 20.79 0 0 1-3.17 3.51 21.43 21.43 0 0 1-4.49 3 25.92 25.92 0 0 1-5.84 2.15 29.27 29.27 0 0 1-7.13.86zm-1.61-43.36a9.56 9.56 0 0 0-4 .8 8.8 8.8 0 0 0-3 2.25 11.76 11.76 0 0 0-2 3.44 20 20 0 0 0-1.12 4.45h19.63v-1.13a14.22 14.22 0 0 0-.61-3.9 8.71 8.71 0 0 0-1.71-3.13 7.71 7.71 0 0 0-2.93-2 11.06 11.06 0 0 0-4.26-.78z" class="a"/>
  <path fill="#a1d6d0" d="M333.83 85H289.3v-4.53l23.29-26.42c2.19-2.47 4-4.7 5.55-6.69a43.75 43.75 0 0 0 3.66-5.54 22.56 22.56 0 0 0 2-4.83 17.25 17.25 0 0 0 .61-4.52 17.43 17.43 0 0 0-1-5.88 12.92 12.92 0 0 0-2.78-4.59 12.7 12.7 0 0 0-4.63-3 17.54 17.54 0 0 0-6.39-1.08 17 17 0 0 0-6.67 1.25 14.62 14.62 0 0 0-5 3.44 15.31 15.31 0 0 0-3.2 5.22 19 19 0 0 0-1.12 6.6h-5.81a23.24 23.24 0 0 1 1.49-8.31 19.85 19.85 0 0 1 4.32-6.83 20.73 20.73 0 0 1 6.86-4.64 23.27 23.27 0 0 1 9.16-1.71 26.85 26.85 0 0 1 8.64 1.3 18 18 0 0 1 6.54 3.75 16.52 16.52 0 0 1 4.13 6 21.17 21.17 0 0 1 1.44 8 19.21 19.21 0 0 1-1.17 6.5A36 36 0 0 1 326 45a60.59 60.59 0 0 1-4.49 6.4c-1.69 2.11-3.43 4.2-5.22 6.25L296.48 80h37.35z"/>
  <path d="M341.4 58.15a38.31 38.31 0 0 1 1.49-11 26 26 0 0 1 4.25-8.55 19.17 19.17 0 0 1 6.71-5.51 19.84 19.84 0 0 1 8.94-2 18.24 18.24 0 0 1 7.93 1.57 15.89 15.89 0 0 1 5.6 4.39l.58-5h12.79v51a23.52 23.52 0 0 1-1.85 9.62 20 20 0 0 1-5.2 7.11 22.36 22.36 0 0 1-8 4.39 33.61 33.61 0 0 1-10.33 1.49 30.35 30.35 0 0 1-10.57-2 26.75 26.75 0 0 1-5.05-2.59 16.19 16.19 0 0 1-4.05-3.71l6.25-8.59a18.51 18.51 0 0 0 5.68 4.34 16 16 0 0 0 7.11 1.57c3.74 0 6.66-1 8.74-3s3.12-4.84 3.12-8.52v-2.74A16.33 16.33 0 0 1 370 84.5a17.59 17.59 0 0 1-7.33 1.44 19.05 19.05 0 0 1-8.86-2 19.87 19.87 0 0 1-6.69-5.59 26 26 0 0 1-4.25-8.47 36.69 36.69 0 0 1-1.49-10.67zm14.11 1a27.22 27.22 0 0 0 .64 6 14.8 14.8 0 0 0 2 4.85 10 10 0 0 0 3.37 3.28 9.35 9.35 0 0 0 4.81 1.19 11.42 11.42 0 0 0 5.67-1.23 9.21 9.21 0 0 0 3.58-3.56V47.46a9.49 9.49 0 0 0-3.58-3.59 11.25 11.25 0 0 0-5.55-1.24 9.38 9.38 0 0 0-4.81 1.19 10.26 10.26 0 0 0-3.39 3.3 15.35 15.35 0 0 0-2 4.93 26.84 26.84 0 0 0-.66 6.1zM430.22 45.36c-.72-.1-1.55-.18-2.51-.27s-1.82-.12-2.57-.12a14.15 14.15 0 0 0-6.71 1.39 8.54 8.54 0 0 0-3.78 4V85h-14.12V32.13h13.33l.39 6.3a15.88 15.88 0 0 1 4.94-5.35 12.18 12.18 0 0 1 6.81-1.93 15.36 15.36 0 0 1 2.37.2 15 15 0 0 1 2 .44zM433.05 58.06a33.56 33.56 0 0 1 1.66-10.7 24.61 24.61 0 0 1 4.84-8.52 22.33 22.33 0 0 1 7.83-5.64A26.26 26.26 0 0 1 458 31.15a26.59 26.59 0 0 1 10.7 2.05 22.53 22.53 0 0 1 7.88 5.64 24.34 24.34 0 0 1 4.86 8.52 33.29 33.29 0 0 1 1.66 10.7v1a33.15 33.15 0 0 1-1.66 10.72 24.34 24.34 0 0 1-4.86 8.5 22.28 22.28 0 0 1-7.83 5.61 29 29 0 0 1-21.32 0 22.22 22.22 0 0 1-7.86-5.61 24.5 24.5 0 0 1-4.86-8.5 33.42 33.42 0 0 1-1.66-10.72zm14.11 1a30 30 0 0 0 .59 6.06 14.86 14.86 0 0 0 1.88 4.9 9.67 9.67 0 0 0 3.37 3.3 9.93 9.93 0 0 0 5.1 1.22 9.76 9.76 0 0 0 5-1.22 9.9 9.9 0 0 0 3.4-3.32 14.67 14.67 0 0 0 1.91-4.9 30 30 0 0 0 .58-6.06v-1a29.12 29.12 0 0 0-.58-5.94 15.37 15.37 0 0 0-1.91-4.93 10 10 0 0 0-3.42-3.37 9.78 9.78 0 0 0-5.08-1.22 9.54 9.54 0 0 0-5 1.24 9.88 9.88 0 0 0-3.37 3.37 15.57 15.57 0 0 0-1.88 4.93 29.11 29.11 0 0 0-.59 5.94zM513.77 74.56a10.85 10.85 0 0 0 3.56-.56 8.09 8.09 0 0 0 2.78-1.59A7.11 7.11 0 0 0 522 70a8.42 8.42 0 0 0 .7-3.25h13.24a18.16 18.16 0 0 1-1.76 7.74 19.05 19.05 0 0 1-4.64 6.1 21 21 0 0 1-6.91 4 25.22 25.22 0 0 1-8.63 1.35 25.76 25.76 0 0 1-10.74-2.08 21.25 21.25 0 0 1-7.62-5.66 24 24 0 0 1-4.54-8.45 35 35 0 0 1-1.51-10.47v-1.37a35.3 35.3 0 0 1 1.51-10.5 24.24 24.24 0 0 1 4.54-8.49 21.15 21.15 0 0 1 7.59-5.69 25.49 25.49 0 0 1 10.67-2.08 26.27 26.27 0 0 1 8.91 1.44 19.7 19.7 0 0 1 6.91 4.13 18.74 18.74 0 0 1 4.5 6.52 22.72 22.72 0 0 1 1.66 8.57h-13.23a11.15 11.15 0 0 0-.66-3.59 8.68 8.68 0 0 0-1.73-2.93 8.18 8.18 0 0 0-2.78-2 9.35 9.35 0 0 0-3.81-.73 9 9 0 0 0-5 1.27 8.76 8.76 0 0 0-3.05 3.39 15.28 15.28 0 0 0-1.49 4.91 41.47 41.47 0 0 0-.39 5.76v1.37a41.88 41.88 0 0 0 .39 5.81 15 15 0 0 0 1.46 4.93 8.65 8.65 0 0 0 3.05 3.35 9.41 9.41 0 0 0 5.13 1.21zM568.26 85.94a28.77 28.77 0 0 1-11-2 24.44 24.44 0 0 1-8.26-5.47 23.35 23.35 0 0 1-5.18-8.13 27.71 27.71 0 0 1-1.78-10v-1.9a33.54 33.54 0 0 1 1.73-11 25.44 25.44 0 0 1 4.93-8.62 22.24 22.24 0 0 1 7.77-5.64 27.28 27.28 0 0 1 20.28-.18 20.1 20.1 0 0 1 7.3 5.28 22.56 22.56 0 0 1 4.45 8.17 35.88 35.88 0 0 1 1.5 10.68v6h-33.66a14.77 14.77 0 0 0 1.4 4.68 12.1 12.1 0 0 0 2.68 3.59 11.87 11.87 0 0 0 3.83 2.32 14 14 0 0 0 4.94.83 17.54 17.54 0 0 0 7.13-1.44 14.33 14.33 0 0 0 5.61-4.47l6.93 7.77a20.79 20.79 0 0 1-3.17 3.51 21.43 21.43 0 0 1-4.49 3 25.92 25.92 0 0 1-5.84 2.15 29.27 29.27 0 0 1-7.1.87zm-1.61-43.36a9.56 9.56 0 0 0-4 .8 8.8 8.8 0 0 0-3 2.25 11.76 11.76 0 0 0-2 3.44 20 20 0 0 0-1.12 4.45h19.63v-1.13a14.22 14.22 0 0 0-.61-3.9 8.56 8.56 0 0 0-1.71-3.13 7.71 7.71 0 0 0-2.93-2 11.06 11.06 0 0 0-4.26-.78zM627.68 45.36c-.71-.1-1.55-.18-2.51-.27s-1.82-.09-2.57-.09a14.15 14.15 0 0 0-6.71 1.39 8.54 8.54 0 0 0-3.78 4V85H598V32.13h13.33l.4 6.3a15.75 15.75 0 0 1 4.93-5.35 12.18 12.18 0 0 1 6.83-1.93 15.36 15.36 0 0 1 2.37.2 15 15 0 0 1 2 .44zM655.07 65l9.77-32.86H680l-21.17 60.73a42.7 42.7 0 0 1-1.83 4.35 16.88 16.88 0 0 1-3.1 4.37A16.09 16.09 0 0 1 649 105a16.78 16.78 0 0 1-7.08 1.34c-.65 0-1.24 0-1.76-.07l-1.51-.17q-.74-.11-1.44-.27c-.47-.12-1-.26-1.54-.42V94.68H637.82a17.63 17.63 0 0 0 3.59-.32 7.28 7.28 0 0 0 2.56-1 6.39 6.39 0 0 0 1.81-1.78 11.36 11.36 0 0 0 1.27-2.54l1.51-4-18.51-53h15.19z" class="a"/>
  <path d="M164.56 95.78H10.86a1.5 1.5 0 0 1 0-3h153.7a1.5 1.5 0 0 1 0 3zM332.59 96.28H205.12a1.5 1.5 0 0 1 0-3h127.47a1.5 1.5 0 0 1 0 3zM622.7 96.28H402.08a1.5 1.5 0 0 1 0-3H622.7a1.5 1.5 0 0 1 0 3z" class="c"/>
</svg>
